<?xml version="1.0" encoding="utf-8"?>
<!-- Generator: Adobe Illustrator 24.1.2, SVG Export Plug-In . SVG Version: 6.00 Build 0)  -->
<svg version="1.1" id="레이어_1" xmlns="http://www.w3.org/2000/svg" xmlns:xlink="http://www.w3.org/1999/xlink" x="0px"
	 y="0px" viewBox="0 0 188 38" style="enable-background:new 0 0 188 38;" xml:space="preserve">
<style type="text/css">
	.st0{fill:#FB685D;}
</style>
<path class="st0" d="M22,19.3l4.3,3.9c-0.8,1.1-1.9,2.1-3,2.9c-1.2,0.9-2.6,1.6-4.1,2.1C17.7,28.8,16,29,14.4,29
	c-2.6,0-5.1-0.6-7.4-1.9c-2.2-1.2-4-3-5.2-5.1C0.6,19.8,0,17.2,0,14.6c0-2,0.3-3.9,1-5.8c0.7-1.7,1.7-3.3,3-4.7
	c1.3-1.3,2.8-2.4,4.5-3.1C10.4,0.4,12.4,0,14.5,0c2.3,0,4.7,0.4,6.8,1.4c1.9,0.9,3.6,2.3,4.9,4l-4.3,4.1c-0.8-1.1-1.8-2-3-2.7
	c-1.2-0.7-2.7-1.1-4.1-1c-1.5-0.1-2.9,0.3-4.2,1c-1.2,0.8-2.2,1.9-2.8,3.2c-0.7,1.4-1,2.9-1,4.4c0,1.5,0.3,3,1,4.4
	c0.6,1.3,1.6,2.3,2.8,3.1c1.3,0.8,2.8,1.2,4.3,1.1c1.2,0,2.4-0.1,3.5-0.5c0.8-0.3,1.6-0.8,2.3-1.4C21,20.6,21.5,20,22,19.3z"/>
<path class="st0" d="M28.1,28.3V0.7h6v10.1c0.7-0.8,1.6-1.4,2.5-1.7c1-0.4,2.1-0.6,3.2-0.6c1-0.1,2,0.1,2.9,0.4
	c0.9,0.3,1.8,0.8,2.5,1.5c0.7,0.8,1.3,1.7,1.6,2.7s0.5,2.1,0.4,3.1v12.1h-6V17.2c0.1-1-0.3-1.9-0.9-2.7c-0.3-0.3-0.7-0.5-1.1-0.6
	c-0.4-0.1-0.8-0.2-1.3-0.2c-0.6,0-1.1,0.1-1.6,0.3s-1,0.6-1.3,1c-0.7,0.8-1,1.9-1,3v10.3L28.1,28.3z"/>
<path class="st0" d="M66.9,22.4l2.4,3.8l-1.5,0.9c-0.9,0.5-1.8,0.9-2.8,1.2c-1.3,0.4-2.7,0.6-4.2,0.6c-2.1,0.1-4.1-0.4-5.9-1.4
	c-1.5-0.8-2.8-2-3.7-3.4c-0.9-1.7-1.3-3.5-1.3-5.4c0-1.8,0.4-3.6,1.2-5.3c0.8-1.6,2-2.9,3.5-3.8c1.7-1,3.6-1.5,5.5-1.4
	c1.9-0.1,3.7,0.4,5.3,1.4c1.4,1,2.6,2.3,3.3,3.9c0.8,1.8,1.1,3.8,1.1,5.8v1h-14c0,0.5,0.2,1.1,0.4,1.5c0.2,0.5,0.6,0.9,1,1.2
	c1.1,0.8,2.4,1.1,3.7,1c1.3,0.1,2.6-0.2,3.8-0.7C65.4,23.2,66.2,22.8,66.9,22.4L66.9,22.4z M55.8,16.6H64c0-0.6-0.2-1.2-0.4-1.7
	c-0.3-0.6-0.8-1.1-1.4-1.4c-0.7-0.4-1.5-0.6-2.3-0.6c-0.8,0-1.6,0.2-2.3,0.6c-0.6,0.4-1.1,0.8-1.4,1.4C55.9,15.4,55.8,16,55.8,16.6
	L55.8,16.6z"/>
<path class="st0" d="M72.2,28.3V8.9h5.8l0.2,2.4c0.6-0.7,1.3-1.4,2.1-1.9c1-0.7,2.3-1,3.5-0.9c0.5,0,0.9,0,1.4,0
	c0.4,0,0.7,0.1,1.1,0.3l-1,5.3c-0.7-0.2-1.5-0.3-2.2-0.3c-0.6,0-1.3,0.1-1.9,0.3c-0.6,0.2-1.1,0.6-1.6,1c-0.4,0.5-0.8,1-1,1.6
	c-0.2,0.6-0.3,1.2-0.3,1.9v9.8H72.2z"/>
<path class="st0" d="M87.6,28.3V8.9h5.8l0.2,2.4c0.6-0.7,1.3-1.4,2.1-1.9c1-0.7,2.3-1,3.5-0.9c0.5,0,0.9,0,1.4,0
	c0.4,0,0.8,0.1,1.1,0.3l-0.9,5.3c-0.7-0.2-1.5-0.3-2.3-0.3c-0.6,0-1.3,0.1-1.9,0.3c-0.6,0.2-1.1,0.6-1.6,1c-0.4,0.5-0.8,1-1,1.6
	c-0.2,0.6-0.3,1.2-0.3,1.9v9.8H87.6z"/>
<path class="st0" d="M103.8,35.5l2.4-4.1c0.4,0.2,0.8,0.5,1.2,0.7c0.4,0.2,0.8,0.3,1.3,0.3c0.6,0,1.2-0.2,1.6-0.6
	c0.5-0.6,0.9-1.3,1.2-2.1l0.8-1.6l-9.1-19.2h7l4.9,12.2l4.2-12.2h6.4l-8,19.3c-0.5,1.1-0.9,2.1-1.3,3.2c-0.4,1-1,2-1.6,2.9
	c-0.6,0.9-1.4,1.6-2.3,2.1c-1.1,0.5-2.3,0.8-3.5,0.8c-1,0-2-0.1-2.9-0.4C105.2,36.4,104.4,36,103.8,35.5z"/>
<path class="st0" d="M129.6,28.3V0.7h10.2c2-0.1,3.9,0.4,5.6,1.3c1.4,0.8,2.5,2,3.2,3.4c0.7,1.4,1,2.8,1,4.3c0,1.7-0.5,3.4-1.5,4.8
	c-0.8,1.3-2.1,2.4-3.5,3c-1.5,0.7-3.1,1.1-4.7,1h-4.2v9.7H129.6z M135.8,13.5h3.7c0.5,0,1-0.1,1.5-0.2c0.5-0.2,0.9-0.5,1.3-0.8
	c0.3-0.4,0.6-0.8,0.8-1.3c0.2-0.5,0.3-1,0.2-1.5c0-0.5-0.1-1-0.2-1.5c-0.2-0.5-0.5-0.9-0.8-1.3c-0.4-0.4-0.8-0.7-1.3-0.8
	c-0.5-0.2-1-0.3-1.5-0.3H136L135.8,13.5z"/>
<path class="st0" d="M149.6,18.6c0-1.8,0.5-3.6,1.4-5.2c0.9-1.6,2.1-2.9,3.7-3.8c1.7-0.9,3.6-1.4,5.5-1.4s3.8,0.5,5.5,1.4
	c1.5,0.9,2.7,2.2,3.5,3.8c0.9,1.6,1.3,3.4,1.3,5.2c0,1.8-0.4,3.6-1.3,5.2c-0.8,1.5-2,2.8-3.5,3.8c-1.7,0.9-3.6,1.4-5.5,1.4
	s-3.8-0.5-5.5-1.4c-1.5-0.9-2.8-2.2-3.7-3.7C150.1,22.2,149.6,20.4,149.6,18.6z M160.1,23.8c0.9,0,1.8-0.2,2.6-0.8
	c0.7-0.5,1.2-1.2,1.6-1.9c0.3-0.8,0.5-1.7,0.5-2.5c0-0.9-0.2-1.7-0.5-2.5c-0.4-0.8-0.9-1.4-1.6-1.9c-0.8-0.5-1.7-0.7-2.6-0.7
	c-0.9,0-1.8,0.3-2.6,0.7c-0.7,0.5-1.3,1.2-1.6,1.9c-0.4,0.8-0.6,1.6-0.6,2.5c0,0.9,0.2,1.7,0.6,2.5c0.3,0.8,0.9,1.4,1.6,1.9
	c0.8,0.5,1.7,0.8,2.7,0.8H160.1z"/>
<path class="st0" d="M174.3,20.9v-7.3h-3.1V8.9h3.1V2.5h6v6.4h5.1v4.7h-5.1v7.7c-0.1,0.8,0.1,1.5,0.6,2.2c0.2,0.3,0.5,0.5,0.8,0.6
	c0.3,0.1,0.6,0.2,1,0.2c0.6,0,1.1-0.1,1.6-0.3c0.4-0.2,0.9-0.5,1.3-0.7l2.4,3.4c-1.7,1.5-3.9,2.2-6.2,2.2c-1.6,0.1-3.1-0.3-4.5-1
	c-1.1-0.7-1.9-1.7-2.3-2.9C174.6,23.6,174.3,22.3,174.3,20.9L174.3,20.9z"/>
</svg>
